<?xml version="1.0" encoding="utf-8"?>
<!-- Generator: Adobe Illustrator 22.1.0, SVG Export Plug-In . SVG Version: 6.00 Build 0)  -->
<svg version="1.1" id="Lager_1" xmlns="http://www.w3.org/2000/svg" xmlns:xlink="http://www.w3.org/1999/xlink" x="0px" y="0px"
	 viewBox="0 0 841.9 595.3" style="enable-background:new 0 0 841.9 595.3;" xml:space="preserve">
<style type="text/css">
	.st0{fill:#182871;}
	.st1{fill:#FFFFFF;}
</style>
<rect x="349.2" y="226" class="st0" width="141.7" height="141.7"/>
<g>
	<g>
		<polygon class="st1" points="440.4,282 437.3,282 441.6,289.8 445.8,282 443.3,282 443.3,280 452.1,280 452.1,282 449.2,282 
			443.3,292.7 436.5,292.7 430.5,282 427.6,282 427.6,280 440.4,280 		"/>
	</g>
	<g>
		<polygon class="st1" points="383.8,282 380.8,282 385.1,289.8 389.3,282 386.8,282 386.8,280 395.5,280 395.5,282 392.6,282 
			386.8,292.7 379.9,292.7 374,282 371.1,282 371.1,280 383.8,280 		"/>
	</g>
	<g>
		<path class="st1" d="M416.2,282h-3l0-2l11.8,0v2H422v8.8c0.5,0,2,0,2.7,0c1,0,1.5-0.1,2-0.4c0.4-0.2,0.7-0.4,1-0.7
			c0.8-0.8,1.2-1.9,1.2-2.9c0.5,0,1.5,0,1.9,0v5.9l-17.6,0l0-2c0,0,2.8,0,3,0L416.2,282z"/>
	</g>
	<path class="st1" d="M403.4,291c2.2,0,3.1-2.4,3.1-4.7c0-2.4-1.1-4.6-3.1-4.6c-2,0-3.2,2.2-3.2,4.6
		C400.3,288.7,401.3,291,403.4,291L403.4,291z M394.4,286.3c0-3.7,3.1-6.6,9-6.6c5.9,0,9.1,2.9,9.1,6.6c0,3.7-3,6.7-9,6.7
		C397.4,293.1,394.4,290.1,394.4,286.3z"/>
	<path class="st1" d="M459.9,291c2.2,0,3.1-2.4,3.1-4.7c0-2.4-1.1-4.6-3.1-4.6c-2,0-3.2,2.2-3.2,4.6
		C456.8,288.7,457.8,291,459.9,291L459.9,291z M450.9,286.3c0-3.7,3.1-6.6,9-6.6s9.1,2.9,9.1,6.6c0,3.7-3,6.7-9,6.7
		C453.9,293.1,450.9,290.1,450.9,286.3z"/>
</g>
<g>
	<path class="st1" d="M379.6,314l-2.6-7.7h2.2l1.1,3.7c0.3,1,0.4,1.5,0.5,2.1h0c0.1-0.5,0.2-1.1,0.5-2.1l1-3.7h2.2L382,314H379.6z"
		/>
	<path class="st1" d="M389.3,314.2c-2.4,0-4-1.6-4-4c0-2.4,1.7-4.1,4.1-4.1c2.4,0,4,1.6,4,4C393.3,312.6,391.6,314.2,389.3,314.2z
		 M389.3,307.8c-1.2,0-2,0.9-2,2.3c0,1.4,0.7,2.3,2,2.3s2-0.9,2-2.3C391.3,308.8,390.5,307.8,389.3,307.8z"/>
	<path class="st1" d="M394.9,306.3h2v6h3.4v1.7h-5.4V306.3z"/>
	<path class="st1" d="M403,314l-2.6-7.7h2.2l1.1,3.7c0.3,1,0.4,1.5,0.5,2.1h0c0.1-0.5,0.2-1.1,0.5-2.1l1-3.7h2.2l-2.6,7.7H403z"/>
	<path class="st1" d="M412.5,314.2c-2.4,0-4-1.6-4-4c0-2.4,1.7-4.1,4.1-4.1c2.4,0,4,1.6,4,4C416.6,312.6,414.9,314.2,412.5,314.2z
		 M412.6,307.8c-1.2,0-2,0.9-2,2.3c0,1.4,0.7,2.3,2,2.3c1.2,0,2-0.9,2-2.3C414.6,308.8,413.8,307.8,412.6,307.8z"/>
	<path class="st1" d="M426.3,314v-0.7h0c-0.5,0.5-1.1,0.9-2.2,0.9c-2.1,0-3.8-1.5-3.8-4c0-2.4,1.7-4.1,4.1-4.1
		c1.6,0,2.7,0.5,3.4,1.4l-1.5,1.3c-0.4-0.6-1.1-1-2-1c-1.2,0-2,0.9-2,2.3c0,1.4,0.7,2.3,2,2.3c1.1,0,1.6-0.6,1.6-1.3v-0.1h-1.5v-1.5
		h3.4v4.3H426.3z"/>
	<path class="st1" d="M434.5,314l-1.5-2.6h-1.2v2.6h-2v-7.7c1.1,0,2.5,0,3.4,0c1.5,0,3.3,0.5,3.3,2.5c0,1.1-0.6,1.9-1.5,2.3l1.9,2.9
		H434.5z M431.8,309.8c0.4,0,0.9,0,1.3,0c1,0,1.3-0.5,1.3-1c0-0.5-0.3-0.9-1.4-0.9c-0.5,0-0.9,0-1.3,0V309.8z"/>
	<path class="st1" d="M441.8,314.2c-2.4,0-4-1.6-4-4c0-2.4,1.7-4.1,4.1-4.1c2.4,0,4,1.6,4,4C445.9,312.6,444.2,314.2,441.8,314.2z
		 M441.9,307.8c-1.2,0-2,0.9-2,2.3c0,1.4,0.7,2.3,2,2.3c1.2,0,2-0.9,2-2.3C443.8,308.8,443.1,307.8,441.9,307.8z"/>
	<path class="st1" d="M449.3,310.7c0,1,0.5,1.7,1.6,1.7c1,0,1.6-0.6,1.6-1.7v-4.5h1.8v4.6c0,1.8-1.1,3.3-3.4,3.3
		c-2.4,0-3.5-1.4-3.5-3.3v-4.6h2V310.7z"/>
	<path class="st1" d="M456.3,306.3c1.1,0,2.1,0,3.2,0c1.8,0,3.5,0.5,3.5,2.7c0,1.9-1.5,2.7-3.6,2.7c-0.6,0-0.9,0-1.2,0v2.4h-2V306.3
		z M459.4,307.9c-0.4,0-0.8,0-1.2,0v2.1c0.4,0,0.8,0,1.3,0c1.2,0,1.5-0.4,1.5-1.1C460.9,308.3,460.6,307.9,459.4,307.9z"/>
</g>
</svg>
